REM DIRINDEX 1\2\5,1\2\6,1\2\7,1\2\8,1\3\9,1\3\10,1\3\11,1\4\12,1\4\13,1\4\14,1\4\15,1\4\16
REM DIRNAME cjc034,folder01,folder02,folder03,folder04,folder05,folder06,folder07,folder08,folder09,folder10,folder11,folder12,folder13,folder14,folder15
TITLE ""
FILE "1200_sec03_0907_0915.mp3" MP3
  TRACK 01 AUDIO
    TITLE "0:"
    INDEX 01 00:00:00
  TRACK 02 AUDIO
    TITLE "12:cjc034_07303"
    INDEX 01 00:00:19
  TRACK 03 AUDIO
    TITLE "0:"
    INDEX 01 00:01:28
  TRACK 04 AUDIO
    TITLE "13:cjc034_07304"
    INDEX 01 00:01:62
  TRACK 05 AUDIO
    TITLE "0:"
    INDEX 01 00:03:66
  TRACK 06 AUDIO
    TITLE "14:cjc034_07305"
    INDEX 01 00:04:25
  TRACK 07 AUDIO
    TITLE "0:"
    INDEX 01 00:05:34
  TRACK 08 AUDIO
    TITLE "15:cjc034_07306"
    INDEX 01 00:05:69
  TRACK 09 AUDIO
    TITLE "0:"
    INDEX 01 00:09:24
  TRACK 10 AUDIO
    TITLE "12:cjc034_07307"
    INDEX 01 00:10:57
  TRACK 11 AUDIO
    TITLE "0:"
    INDEX 01 00:11:66
  TRACK 12 AUDIO
    TITLE "13:cjc034_07308"
    INDEX 01 00:12:24
  TRACK 13 AUDIO
    TITLE "0:"
    INDEX 01 00:14:49
  TRACK 14 AUDIO
    TITLE "14:cjc034_07309"
    INDEX 01 00:15:05
  TRACK 15 AUDIO
    TITLE "0:"
    INDEX 01 00:16:14
  TRACK 16 AUDIO
    TITLE "15:cjc034_07310"
    INDEX 01 00:16:46
  TRACK 17 AUDIO
    TITLE "0:"
    INDEX 01 00:20:51
  TRACK 18 AUDIO
    TITLE "12:cjc034_07311"
    INDEX 01 00:22:07
  TRACK 19 AUDIO
    TITLE "0:"
    INDEX 01 00:23:12
  TRACK 20 AUDIO
    TITLE "13:cjc034_07312"
    INDEX 01 00:23:48
  TRACK 21 AUDIO
    TITLE "0:"
    INDEX 01 00:24:69
  TRACK 22 AUDIO
    TITLE "14:cjc034_07313"
    INDEX 01 00:25:29
  TRACK 23 AUDIO
    TITLE "0:"
    INDEX 01 00:26:34
  TRACK 24 AUDIO
    TITLE "15:cjc034_07314"
    INDEX 01 00:26:67
  TRACK 25 AUDIO
    TITLE "0:"
    INDEX 01 00:29:72
  TRACK 26 AUDIO
    TITLE "12:cjc034_07315"
    INDEX 01 00:31:31
  TRACK 27 AUDIO
    TITLE "0:"
    INDEX 01 00:32:52
  TRACK 28 AUDIO
    TITLE "13:cjc034_07316"
    INDEX 01 00:33:11
  TRACK 29 AUDIO
    TITLE "0:"
    INDEX 01 00:35:14
  TRACK 30 AUDIO
    TITLE "14:cjc034_07317"
    INDEX 01 00:35:43
  TRACK 31 AUDIO
    TITLE "0:"
    INDEX 01 00:36:64
  TRACK 32 AUDIO
    TITLE "15:cjc034_07318"
    INDEX 01 00:37:22
  TRACK 33 AUDIO
    TITLE "0:"
    INDEX 01 00:40:60
  TRACK 34 AUDIO
    TITLE "16:cjc034_07319"
    INDEX 01 00:42:18
  TRACK 35 AUDIO
    TITLE "0:"
    INDEX 01 00:46:60
  TRACK 36 AUDIO
    TITLE "12:cjc034_07320"
    INDEX 01 00:47:66
  TRACK 37 AUDIO
    TITLE "0:"
    INDEX 01 00:49:04
  TRACK 38 AUDIO
    TITLE "13:cjc034_07321"
    INDEX 01 00:49:37
  TRACK 39 AUDIO
    TITLE "0:"
    INDEX 01 00:50:60
  TRACK 40 AUDIO
    TITLE "14:cjc034_07322"
    INDEX 01 00:51:16
  TRACK 41 AUDIO
    TITLE "0:"
    INDEX 01 00:52:30
  TRACK 42 AUDIO
    TITLE "15:cjc034_07323"
    INDEX 01 00:52:65
  TRACK 43 AUDIO
    TITLE "0:"
    INDEX 01 00:56:16
  TRACK 44 AUDIO
    TITLE "12:cjc034_07324"
    INDEX 01 00:57:60
  TRACK 45 AUDIO
    TITLE "0:"
    INDEX 01 00:59:00
  TRACK 46 AUDIO
    TITLE "13:cjc034_07325"
    INDEX 01 00:59:32
  TRACK 47 AUDIO
    TITLE "0:"
    INDEX 01 01:00:45
  TRACK 48 AUDIO
    TITLE "14:cjc034_07326"
    INDEX 01 01:01:05
  TRACK 49 AUDIO
    TITLE "0:"
    INDEX 01 01:02:18
  TRACK 50 AUDIO
    TITLE "15:cjc034_07327"
    INDEX 01 01:02:50
  TRACK 51 AUDIO
    TITLE "0:"
    INDEX 01 01:05:15
  TRACK 52 AUDIO
    TITLE "12:cjc034_07328"
    INDEX 01 01:06:47
  TRACK 53 AUDIO
    TITLE "0:"
    INDEX 01 01:07:57
  TRACK 54 AUDIO
    TITLE "13:cjc034_07329"
    INDEX 01 01:08:15
  TRACK 55 AUDIO
    TITLE "0:"
    INDEX 01 01:09:12
  TRACK 56 AUDIO
    TITLE "14:cjc034_07330"
    INDEX 01 01:09:46
  TRACK 57 AUDIO
    TITLE "0:"
    INDEX 01 01:10:57
  TRACK 58 AUDIO
    TITLE "15:cjc034_07331"
    INDEX 01 01:11:13
  TRACK 59 AUDIO
    TITLE "0:"
    INDEX 01 01:14:61
  TRACK 60 AUDIO
    TITLE "12:cjc034_07332"
    INDEX 01 01:16:20
  TRACK 61 AUDIO
    TITLE "0:"
    INDEX 01 01:17:30
  TRACK 62 AUDIO
    TITLE "13:cjc034_07333"
    INDEX 01 01:17:65
  TRACK 63 AUDIO
    TITLE "0:"
    INDEX 01 01:19:27
  TRACK 64 AUDIO
    TITLE "14:cjc034_07334"
    INDEX 01 01:19:60
  TRACK 65 AUDIO
    TITLE "0:"
    INDEX 01 01:20:69
  TRACK 66 AUDIO
    TITLE "15:cjc034_07335"
    INDEX 01 01:21:27
  TRACK 67 AUDIO
    TITLE "0:"
    INDEX 01 01:25:08
  TRACK 68 AUDIO
    TITLE "12:cjc034_07336"
    INDEX 01 01:26:42
  TRACK 69 AUDIO
    TITLE "0:"
    INDEX 01 01:27:57
  TRACK 70 AUDIO
    TITLE "13:cjc034_07337"
    INDEX 01 01:28:14
  TRACK 71 AUDIO
    TITLE "0:"
    INDEX 01 01:29:21
  TRACK 72 AUDIO
    TITLE "14:cjc034_07338"
    INDEX 01 01:29:56
  TRACK 73 AUDIO
    TITLE "0:"
    INDEX 01 01:30:67
  TRACK 74 AUDIO
    TITLE "15:cjc034_07339"
    INDEX 01 01:31:26
  TRACK 75 AUDIO
    TITLE "0:"
    INDEX 01 01:34:55
